<svg width="334" height="280" viewBox="0 0 334 280" fill="none" xmlns="http://www.w3.org/2000/svg">
<path fill-rule="evenodd" clip-rule="evenodd" d="M141.905 147.604C145.071 141.677 148.232 135.757 148.232 129.395C148.232 120.365 143.401 112.021 135.558 107.506L119.299 98.145C112.745 94.372 104.669 94.372 98.1151 98.145L88.204 103.851C85.6851 105.301 84.5846 108.279 84.5846 111.18C84.5846 121.253 76.3952 129.418 66.2932 129.418C56.1913 129.418 48.002 121.253 48.002 111.18C48.002 101.107 56.1913 92.9409 66.2934 92.9409C67.885 92.9409 69.5122 93.0093 71.1491 93.0781C76.9874 93.3237 82.9497 93.5744 87.866 90.7442L108.578 78.8206C108.591 78.8131 108.602 78.8022 108.609 78.7891L108.632 78.7493C108.643 78.7303 108.668 78.7236 108.687 78.7347C108.699 78.7418 108.715 78.7418 108.727 78.7347C108.746 78.7236 108.771 78.7303 108.782 78.7493L108.805 78.7891C108.812 78.8022 108.823 78.8131 108.836 78.8206L132.428 92.4022C146.046 100.242 162.824 100.242 176.443 92.4024L182.508 88.9103C192.373 83.2314 198.451 72.7363 198.451 61.3785C198.451 50.0208 204.526 39.5259 214.391 33.847L220.778 30.1706C230.692 24.4621 242.909 24.4621 252.826 30.1706L256.754 32.4326C264.239 36.7414 273.461 36.7414 280.944 32.4326L292.87 25.5677C295.388 24.1175 296.489 21.1392 296.489 18.2388C296.489 8.16582 304.678 0 314.779 0C324.883 0 333.072 8.16582 333.072 18.2388C333.072 28.3118 324.883 36.4776 314.779 36.4776C313.189 36.4776 311.562 36.4092 309.925 36.3404C304.086 36.0948 298.124 35.8441 293.207 38.6743L288.322 41.4868C280.173 46.1782 275.153 54.8485 275.153 64.2314V65.1871C275.153 74.57 280.173 83.2403 288.322 87.9317L293.207 90.7442C298.124 93.5744 304.086 93.3237 309.925 93.0781C311.562 93.0093 313.189 92.9409 314.779 92.9409C324.883 92.9409 333.072 101.107 333.072 111.18C333.072 121.253 324.883 129.418 314.779 129.418C304.678 129.418 296.489 121.253 296.489 111.18C296.489 108.279 295.388 105.301 292.87 103.851L281.337 97.2111C274.031 93.0066 265.034 93.0064 257.731 97.2111L253.168 99.8381C243.04 105.668 230.43 105.592 220.302 99.7615C210.008 93.836 197.192 93.758 186.9 99.6838L172.269 108.106C164.544 112.553 159.785 120.773 159.785 129.667C159.785 136.006 162.954 141.887 166.126 147.775C168.32 151.848 170.516 155.924 171.665 160.157C172.079 161.68 172.3 163.283 172.3 164.935C172.3 175.009 164.111 183.174 154.009 183.174C143.907 183.174 135.717 175.009 135.717 164.935C135.717 163.379 135.913 161.864 136.282 160.421C137.402 156.038 139.655 151.819 141.905 147.604ZM314.779 100.62C309.197 100.62 304.672 105.133 304.672 110.7C304.672 116.266 309.197 120.779 314.779 120.779C320.364 120.779 324.889 116.266 324.889 110.7C324.889 105.133 320.364 100.62 314.779 100.62ZM210.326 65.1027C210.326 50.5233 222.179 38.7045 236.801 38.7045C251.422 38.7045 263.275 50.5233 263.275 65.1027C263.275 79.6819 251.422 91.5009 236.801 91.5009C222.179 91.5009 210.326 79.6819 210.326 65.1027ZM314.779 7.9864C309.197 7.9864 304.672 12.4991 304.672 18.0658C304.672 23.6326 309.197 28.145 314.779 28.145C320.364 28.145 324.889 23.6326 324.889 18.0658C324.889 12.4991 320.364 7.9864 314.779 7.9864ZM143.9 164.455C143.9 158.889 148.426 154.377 154.009 154.377C159.591 154.377 164.117 158.889 164.117 164.455C164.117 170.022 159.591 174.536 154.009 174.536C148.426 174.536 143.9 170.022 143.9 164.455ZM66.4026 100.62C60.8199 100.62 56.2941 105.133 56.2941 110.7C56.2941 116.266 60.8199 120.779 66.4026 120.779C71.9851 120.779 76.5109 116.266 76.5109 110.7C76.5109 105.133 71.9851 100.62 66.4026 100.62Z" fill="white"/>
<path d="M52.7731 167.394H76.9308L131.285 279.77H107.343L98.3562 260.86H32.7135L24.0138 279.77H0L52.7731 167.394ZM89.369 242.095L65.0676 191.048L41.4131 242.095H89.369Z" fill="white"/>
<path d="M192.115 167.394H214.908L255.745 208.375L296.584 167.394H319.375V279.77H296.584V198.955L255.745 238.285L214.908 198.955V279.77H192.115V167.394Z" fill="white"/>
<path d="M143.727 205.45C143.727 199.573 148.491 194.81 154.368 194.81C160.244 194.81 165.008 199.573 165.008 205.45V269.007C165.008 274.885 160.244 279.647 154.368 279.647C148.491 279.647 143.727 274.885 143.727 269.007V205.45Z" fill="white"/>
</svg>
